<svg xmlns="http://www.w3.org/2000/svg" viewBox="0 0 254.46 207.43"><defs><style>.cls-1{fill:#22645a;}.cls-2{fill:#31998e;}.cls-3{fill:#e76d64;}.cls-4{fill:#da6462;}.cls-5{fill:#2a8377;}.cls-6{fill:#ffd0a6;}.cls-7{fill:#ffbf8f;}</style></defs><title>body</title><g id="Шар_2" data-name="Шар 2"><g id="Шар_3" data-name="Шар 3"><path class="cls-1" d="M83.5,23.33s9.5-5.53,10-5.53S103,19.75,103,19.75l-2.8,8.57s-9,5.14-9.16,5.08-7.11,1.15-7.11,1.15L81.24,22.32Z"/><path class="cls-2" d="M76.62,38.41a29.33,29.33,0,0,0-18.27,6.64C49.84,52.12,37,67.27,37,67.27S26.17,82.76,22.85,90.59,7.69,125,7.69,125s-5.81,10-6.44,18.27S.21,156.26,0,164a19.76,19.76,0,0,0,4.57,12.92,30.47,30.47,0,0,0,11.42,0c5.61-1.25,13.08-7.06,14.12-7.89s17-23,19.1-27.41,23.67-33.67,23.67-33.67,1.66,44.68-.42,71.26L70.4,205.77l30.73,1.66h21.39l1.87-46.51L104,124.17,91.37,93s8.31-9.34,8.72-10-7.68-19.31-7.68-19.31Z"/><polygon class="cls-3" points="120.02 66.86 96.56 57.93 114.42 94.27 113.79 138.49 127.31 151.37 154.9 142.65 170.27 143.69 176.21 69.97 182.52 51.08 169.85 48.17 148.88 72.26 142.45 78.69 120.02 66.86"/><path class="cls-1" d="M165.29,35l-3.77-8.67,3.77-2.54L176.91,28s5.61,6.54,5.61,7-.62,6.13-.62,6.13Z"/><path class="cls-4" d="M152.57,77.84s-3.35,4.67-5.68,6-5.53.86-7.79-.47-15.49-8.72-15.49-8.72L102.27,62.73,92.92,49.11l-3.27-8,18.69,7.37,28.5,15.88L160.56,42.1l7.82-6,3.18-1.45,6,2.72,2,.88s-1.25,5-1.25,5.18S175.23,53,175.23,53L163,66.35Z"/><path class="cls-5" d="M74,44.59S70.34,39,69.64,36.13s1.48-7.66,1.48-7.66l7.32-8.18a45.76,45.76,0,0,1,9.27-5.68c4.28-1.71,7.79-2.88,7.79-2.88h3.35l3.27,9.73s-5.06-2.65-7.55-1.87-5.14,1.32-7,3-2.88,3-2.88,3.66-.31,4.1.39,4.67a12.11,12.11,0,0,0,3,1.17,28.87,28.87,0,0,1,3.5,1.71c.08.23,1.95,4.83,1.95,5.14S92.3,43,92.3,43l5.61,9.08s7.79,12.07,12.54,21.26,6.93,13.94,7.94,17.83a59.07,59.07,0,0,1,1.4,8.33l.23,64.86-10.51-20.17L93.24,109.68,87,94.5s-3.89-8,1.4-9.58l6.35-1.87s3.53-2.26,1-5.61S81.71,56.11,81.71,56.11Z"/><path class="cls-2" d="M187.4,47.24s10.49,2.8,21,16,21.08,31.46,21.08,31.46l17,36.54s7.89,11.63,7.89,20.76,1.25,23.26-5,27-10.38,3.74-14.12,2.49-10.59-5-17.65-13.7S204.95,147,204.95,147l-6.85-15.16,1,27s1.45,32.6,1.45,33.22-.42,6.44-.42,6.44l-34.05,4.36-5.55-29.07v-27l10.33,3.95,14.33-49-7.89-15.16Z"/><path class="cls-5" d="M173.75,58,177,42.57s1.45-4.46,0-6.7a56,56,0,0,0-5.5-6.23s-2.28-2.7-4.72-3.22a22.88,22.88,0,0,0-6.23,0l.52-7.94s-.36-1.71,2.34-1.19a34.76,34.76,0,0,1,8.51,3.27c1.3.83,8.62,5.35,10.43,6.59a83.13,83.13,0,0,1,7.68,6.8c.83.93,1.76,1.92,1.82,6.23s-2,21.49-2,21.49S187.24,71,185.38,74s-3.43,5.4-3.43,5.4-3,3.74,1.4,5.09S190,86.69,190,86.69s2.28-.1.62,7.68-6.23,28.55-6.23,28.55l-6,20.82L173,157.39s-3.32,6.28-4.41,6.59-5.4-8.25-5.4-8.25L165,78.07l7-19.73Z"/><path class="cls-6" d="M96.56,0V22.84l-10.8,8.62a2.74,2.74,0,0,0,0,2.28C86.28,35.19,92.3,43,92.3,43l15.57,9.66s30,19.62,33.43,19.62,3.53-.73,3.53-.73l9.08-12L166.69,42l5.24-7.11S167.78,32.65,167,32s-3.11-3.32-3.11-3.32l.78-21.85-.31-3.43L133,3.06Z"/><path class="cls-7" d="M96.56,21.28a85.7,85.7,0,0,1,33.95-6.13,104.48,104.48,0,0,1,33.64,6.13l.52-14.48s-8.31,3.79-29.48,2.86S96.56,6.8,96.56,6.8Z"/></g></g></svg>