<svg xmlns="http://www.w3.org/2000/svg" viewBox="0 0 228.64 304.19"><defs><style>.cls-1{fill:#ffb482;}.cls-2{fill:#ffd0a6;}.cls-3{fill:none;stroke:#000;stroke-miterlimit:10;}.cls-4{fill:#ee8c6d;}.cls-5{fill:#ffbf8f;}.cls-6{fill:#f7f7f7;}.cls-7{fill:#020202;}.cls-8{fill:#f9ffff;}.cls-9{fill:#e68c6a;}.cls-10{fill:#8b5234;}.cls-11{fill:#8d5334;}.cls-12{fill:#945e43;}.cls-13{fill:#7f452b;}.cls-14{fill:#824431;}.cls-15{fill:#804322;}.cls-16{fill:#ef8f71;}.cls-17{fill:#e98e6c;}</style></defs><title>Ресурс 1</title><g id="Шар_2" data-name="Шар 2"><g id="Шар_2-2" data-name="Шар 2"><path class="cls-1" d="M221.55,166.69s3-10,5-17,3-12,1-15-8-3-8-3-4-2-8,4a34.13,34.13,0,0,0-5,11l-1,16s-1,15,0,16,1,18,1,18l1,8,4-3s6-2,8-6a19.93,19.93,0,0,0,2-8v-9a24.42,24.42,0,0,1-1-7C220.55,167.69,221.55,166.69,221.55,166.69Z"/><path class="cls-2" d="M47.55,93.69l-11,26,3,79,4,47,6,20,19,14,23,14,10,4,12,4h14l14-1,4-1,3-1s10-7,12-9,22-18,22-18,17-17,23-30,6-17,6-17,1-14,0-21-1-23-1-23l-1-43v-19l-4-17-8-10-36,3-23-7-24-9-49,6h-15Z"/><path class="cls-3" d="M85,151.19"/><path class="cls-4" d="M97.55,258.69s11,9,25,8,22-4,22-4-6,6-11,8-17,1-17,1-10-4-12-6l-7-7"/><path class="cls-4" d="M83.55,234.69v7s-1,3,18,8,26,5,26,5h17s8-1,11-3-8,6-18,7-30-1-37-4-12-5-17-8-2-9-2-9Z"/><path class="cls-5" d="M131,248.19s-3-1-3-5,3-9,3-9l12-8s7-2,6-4-5-11-5-11l-3-11-1-16,1-12s-1-4.67,3.5-12.33,7.5-8.67,7.5-8.67h4l4,3,15-5,18,4s1,0,1,4-5,16-5,16l-4-1-30,5s-3,0-3,5,1,11,1,19,3,20,3,20,3,6-2,9-19,5-19,5,0,6-1,9A6.93,6.93,0,0,1,131,248.19Z"/><path class="cls-6" d="M187,177.19a24.06,24.06,0,0,1-13,6c-8,1-16-3-16-3s-6-6-1-10,14-5,14-5,9-2,14,2S187,177.19,187,177.19Z"/><rect class="cls-7" x="162.55" y="166.69" width="15" height="16" rx="7.5" ry="7.5"/><rect class="cls-8" x="167.67" y="173.69" width="5" height="6" rx="2.5" ry="2.5"/><path class="cls-9" d="M144.55,158.69s-7,12-7,26,8,36,8,36,2,0-4,4-9,5-11,10,2-2,5-3,10-2,13-5,0-12,0-12a37.83,37.83,0,0,1-6-16c-1-9-2-18-1-24S144.55,158.69,144.55,158.69Z"/><path class="cls-10" d="M155.55,157.69s-5-2-3-8,9-8,9-8l12-2s14,1,18,5,4,7,4,7,0,4-7,2-23,0-23,0-5,2-7,3A7.74,7.74,0,0,1,155.55,157.69Z"/><path class="cls-5" d="M61.55,151.69a7.65,7.65,0,0,0-2,5c0,3-1,9,1,13s7,12,7,12l4-9s9-4,10-4,13,6,14,6,11,4,11,4,7-2,8-6,0-16,0-16l-14-10Z"/><path class="cls-6" d="M86.55,187.69c-4,0-14-2-14-2s-7-3-7-9,11-9,11-9h9s8,0,13,3,8,5,8,8-6,7-6,7Z"/><path class="cls-10" d="M86.55,151.69s-9-1-16,1-8,3-8,3a3.1,3.1,0,0,1-4-2c-1-3,1-7,1-7a24.43,24.43,0,0,1,9-5c6-2,17-3,17-3s14,1,18,3,10,6,11,8,1,7.67,0,7.83-4,.17-4,.17a70,70,0,0,0-11-4A52.73,52.73,0,0,0,86.55,151.69Z"/><rect class="cls-7" x="75.55" y="169.69" width="15" height="16" rx="7.5" ry="7.5"/><rect class="cls-8" x="80.67" y="176.69" width="5" height="6" rx="2.5" ry="2.5"/><path class="cls-11" d="M25.55,39.69l6-4,4-2,11-3,10-3,34-15,30-7,13-2h3l22,1,24,9,18,12,11,17s5,18,4,18-4,10-4,10l-14.34,13s-19.66,13-20.66,13-30-4-31-4-30-5-30-5l-26,5-35-2-24-10-9-21-1-6v-8Z"/><path class="cls-12" d="M27.55,76.69s-6-1-9,1-7,4-7,15,2,28,2,28,3,10,5,18,1,21,1,21l15,23,2-13-2-47,4-23,3-10-2-5Z"/><path class="cls-12" d="M211.55,135.69c0-1-1-1,0-14s2-21,3-25,3-11,2-14-5.05-10.31-5.05-10.31l-2.95.31-11,10-4,12a10.18,10.18,0,0,1,7,7c2,6,5,18,5,18s4,17,4,18C210.55,137.69,211.55,140.35,211.55,135.69Z"/><path class="cls-13" d="M217.55,61.69s-7,12-16,18c-2,1,0-2,0-2s7-5,8-8,5-14,2-20-17-25-30-31-24-14-38-15,21,1,21,1,9,1,21,7,23,17,23,17,5,3,8,13A46.44,46.44,0,0,1,217.55,61.69Z"/><path class="cls-13" d="M126.55,89.69a73.19,73.19,0,0,1,20,6c11,5,11,6,21,9s15,2,15,2,9-2,13-7,6-5,7-8,1-12,0-13l-1-1s-6,8-19,10a226.87,226.87,0,0,1-29,2Z"/><path class="cls-14" d="M51.55,29.69s7,1,19-1a90.66,90.66,0,0,0,19-5s15-9,20-11,26-8,32-8-9-3-9-3-8-3-22-1-31,8-31,8-13,7-19,12A60.53,60.53,0,0,0,51.55,29.69Z"/><path class="cls-15" d="M122.55,36.69l-33,2s-23,1-34,4a78.68,78.68,0,0,0-19,8s-6,8-5,15a35.69,35.69,0,0,0,5,13s4,8,19,10,37,1,37,1,17,0,37-11,25-15,25-15l14-13a82.72,82.72,0,0,1-12,16c-7,7-22,18-22,18a52.21,52.21,0,0,1-12,6c-8,3-22,5-34,5a240.53,240.53,0,0,1-31-2c-7-1-21-6-21-6s-10-4-14-9-8-6-9-13,1-17,1-17,4-9,16-14,15-5,19-5-7,2-7,2-9,2-13,7-5,6-6,8a4.83,4.83,0,0,0,0,4s1,0,2-2,8-7,8-7a56,56,0,0,1,19-6,142.82,142.82,0,0,1,22,0Z"/><path class="cls-5" d="M147,299.19s-7,5-21,5-30-7-30-7l-24-11-27-17s-12-8-15-20-6-31-6-39a45.36,45.36,0,0,1-10-1s-7-2-7-11,0-23-3-31a79.78,79.78,0,0,1-4-16s-1-8,6-8,14,9,14,9l2,10s5,3,7,8a44.27,44.27,0,0,0,5,9l-3-50s-4-27,9-41a48.74,48.74,0,0,0,13,4s-11,10-11,30,2,81,2,81l5,48s0,13,18,24,23,14,23,14a155.88,155.88,0,0,0,17,9c9,4,33,2,33,2Z"/><path class="cls-16" d="M211.55,169.69s0-6,3-6,2,5,2,5l-1,2,3-4s2-5,0-7-5-1-5-1-3,1-3,4A35.48,35.48,0,0,0,211.55,169.69Z"/><path class="cls-17" d="M13,166.19a46,46,0,0,1,2,13c0,7,3,10,3,10s4,3,6,3-6-7-6-7,1-12-1-16S13,166.19,13,166.19Z"/></g></g></svg>